# xmcd CD database file
#
# Track frame offsets:
#	150
#	27651
#	47739
#	72650
#	88838
#	106513
#	133761
#	151971
#	171580
#	194175
#	221228
#
# Disc length: 3087 seconds
#
# Revision: 0
# Processed by: cddbd v1.5.2PL0 Copyright (c) Steve Scherf et al.
# Submitted via: CDex 1.70beta2
#
DISCID=ae0c0d0b
DTITLE=Shannon Thue Trio - The Road Less Travelled
DYEAR=2007
DGENRE=Jazz
TTITLE0=Sunman
TTITLE1=Call Me
TTITLE2=A Rose
TTITLE3=Precipitation
TTITLE4=Ghosts
TTITLE5=All Day Long
TTITLE6=Blues of Mind
TTITLE7=The Road Less Travelled
TTITLE8=The Sun at Night
TTITLE9=Beatrice
TTITLE10=Pennies from Heaven
EXTD=YEAR: 2007
EXTT0=
EXTT1=
EXTT2=
EXTT3=
EXTT4=
EXTT5=
EXTT6=
EXTT7=
EXTT8=
EXTT9=
EXTT10=
PLAYORDER=
